<svg id="visual" viewBox="0 0 960 200" width="960" height="200" xmlns="http://www.w3.org/2000/svg" xmlns:xlink="http://www.w3.org/1999/xlink" version="1.1"><path d="M0 51L16 48.2C32 45.3 64 39.7 96 36.2C128 32.7 160 31.3 192 35.7C224 40 256 50 288 50C320 50 352 40 384 35C416 30 448 30 480 35.5C512 41 544 52 576 56.3C608 60.7 640 58.3 672 58C704 57.7 736 59.3 768 59.5C800 59.7 832 58.3 864 55.8C896 53.3 928 49.7 944 47.8L960 46L960 201L944 201C928 201 896 201 864 201C832 201 800 201 768 201C736 201 704 201 672 201C640 201 608 201 576 201C544 201 512 201 480 201C448 201 416 201 384 201C352 201 320 201 288 201C256 201 224 201 192 201C160 201 128 201 96 201C64 201 32 201 16 201L0 201Z" fill="#202025"></path><path d="M0 71L16 70.2C32 69.3 64 67.7 96 71.7C128 75.7 160 85.3 192 87.3C224 89.3 256 83.7 288 79.2C320 74.7 352 71.3 384 73.5C416 75.7 448 83.3 480 86.7C512 90 544 89 576 87.8C608 86.7 640 85.3 672 81.7C704 78 736 72 768 71.5C800 71 832 76 864 78.3C896 80.7 928 80.3 944 80.2L960 80L960 201L944 201C928 201 896 201 864 201C832 201 800 201 768 201C736 201 704 201 672 201C640 201 608 201 576 201C544 201 512 201 480 201C448 201 416 201 384 201C352 201 320 201 288 201C256 201 224 201 192 201C160 201 128 201 96 201C64 201 32 201 16 201L0 201Z" fill="#1b1b1f"></path><path d="M0 108L16 108.2C32 108.3 64 108.7 96 111.2C128 113.7 160 118.3 192 118.3C224 118.3 256 113.7 288 115.8C320 118 352 127 384 126.8C416 126.7 448 117.3 480 116.7C512 116 544 124 576 124.5C608 125 640 118 672 113.3C704 108.7 736 106.3 768 106C800 105.7 832 107.3 864 109.3C896 111.3 928 113.7 944 114.8L960 116L960 201L944 201C928 201 896 201 864 201C832 201 800 201 768 201C736 201 704 201 672 201C640 201 608 201 576 201C544 201 512 201 480 201C448 201 416 201 384 201C352 201 320 201 288 201C256 201 224 201 192 201C160 201 128 201 96 201C64 201 32 201 16 201L0 201Z" fill="#161619"></path><path d="M0 166L16 164C32 162 64 158 96 156.7C128 155.3 160 156.7 192 157.5C224 158.3 256 158.7 288 157.2C320 155.7 352 152.3 384 153.2C416 154 448 159 480 161.7C512 164.3 544 164.7 576 164.2C608 163.7 640 162.3 672 163.8C704 165.3 736 169.7 768 169.3C800 169 832 164 864 160.5C896 157 928 155 944 154L960 153L960 201L944 201C928 201 896 201 864 201C832 201 800 201 768 201C736 201 704 201 672 201C640 201 608 201 576 201C544 201 512 201 480 201C448 201 416 201 384 201C352 201 320 201 288 201C256 201 224 201 192 201C160 201 128 201 96 201C64 201 32 201 16 201L0 201Z" fill="#101012"></path></svg>